<svg xmlns="http://www.w3.org/2000/svg" xmlns:xlink="http://www.w3.org/1999/xlink" version="1.1" width="792pt" height="612pt" viewBox="169.66666666666666 254.5 452.5 103.0">
<defs>
<clipPath id="clip_1">
<path transform="matrix(1,0,0,-1,0,612)" d="M0 612H792V0H0Z"/>
</clipPath>
</defs>
<g id="layer_1" data-name="Layer 1">
<g clip-path="url(#clip_1)">
<path transform="matrix(1,0,0,-1,364.3711,305.3857)" d="M0 0C0-12.594 10.246-22.84 22.84-22.84 35.435-22.84 45.68-12.594 45.68 0 45.68 12.594 35.435 22.84 22.84 22.84 10.246 22.84 0 12.594 0 0M22.84 32.087C40.564 32.087 54.93 17.72 54.927 0 54.927-17.72 40.561-32.087 22.84-32.087 5.12-32.087-9.247-17.72-9.247 0-9.247 17.72 5.12 32.087 22.84 32.087"/>
<path transform="matrix(1,0,0,-1,429.2755,292.8283)" d="M0 0 9.247-9.247V-44.645H0ZM50.893 19.49V-44.352L41.646-35.105 9.247-2.703V-2.706L0 6.541V19.619L41.646-22.026V19.49Z"/>
<path transform="matrix(1,0,0,-1,552.4669,337.473)" d="M0 0H-27.679C-36.671 0-44.814 3.529-50.735 9.247-56.746 15.042-60.469 23.09-60.469 31.988-60.469 40.887-56.746 48.935-50.735 54.73-44.814 60.448-36.671 63.977-27.679 63.977H-.123V54.73H-30.928C-42.496 53.195-51.438 43.581-51.438 31.988-51.438 20.396-42.496 10.782-30.928 9.247H-9.247V29.621H-27.516L-31.785 38.868H0Z"/>
<path transform="matrix(1,0,0,-1,352.221,284.3035)" d="M0 0-23.321-42.135-29.43-53.169-29.433-53.163-35.536-42.135-29.43-31.103-6.035 11.171M-32.491-25.573-38.566-36.657-65.041 11.171H-52.825Z"/>
<path transform="matrix(1,0,0,-1,622.1805,338.2809)" d="M0 0H-12.215L-32.549 36.745-26.474 47.829Z"/>
<path transform="matrix(1,0,0,-1,563.7847,338.2809)" d="M0 0-.003 .005-6.479 10.862 22.903 64.562 29.319 53.578Z"/>
<path transform="matrix(1,0,0,-1,250.3903,325.632)" d="M0 0H-7.454L-19.863 22.423-16.156 29.188Z"/>
<path transform="matrix(1,0,0,-1,231.9398,293.1853)" d="M0 0-14.232-25.713-17.96-32.447-17.962-32.443-21.686-25.713-17.96-18.981-3.683 6.817M-19.828-15.606-23.535-22.37-39.691 6.817H-32.237Z"/>
<path transform="matrix(1,0,0,-1,221.3195,351.543)" d="M0 0C-25.113 0-45.543 20.43-45.543 45.543-45.543 70.656-25.113 91.086 0 91.086 25.113 91.086 45.543 70.656 45.543 45.543 45.543 20.43 25.113 0 0 0M0 97.043C-28.441 97.043-51.5 73.984-51.5 45.543-51.5 17.102-28.441-5.957 0-5.957 28.441-5.957 51.5 17.102 51.5 45.543 51.505 73.984 28.446 97.043 0 97.043"/>
</g>
</g>
</svg>
