<?xml version="1.0" encoding="UTF-8"?><svg id="Layer_1" xmlns="http://www.w3.org/2000/svg" viewBox="0 0 671.37 130.56"><defs><style>.cls-1{stroke-width:0px;}</style></defs><path class="cls-1" d="m200.47.33c35.52,0,64.31,28.79,64.31,64.31,0,35.51-28.79,64.31-64.31,64.31s-64.31-28.79-64.31-64.31S164.96.33,200.47.33Zm-45.77,64.31c0,25.24,20.53,45.77,45.77,45.77s45.77-20.53,45.77-45.77-20.53-45.77-45.77-45.77-45.77,20.53-45.77,45.77Z"/><path class="cls-1" d="m386.76.41v127.94l-18.53-18.53-64.93-64.94h0s-18.53-18.53-18.53-18.53V.15l83.46,83.46V.41h18.53Zm-101.99,39.06l18.53,18.53v70.94h-18.53V39.47Z"/><path class="cls-1" d="m531.66,128.94h-55.47c-18.02,0-34.34-7.07-46.21-18.53h0c-12.05-11.61-19.51-27.74-19.51-45.58s7.46-33.96,19.51-45.58h0c11.87-11.46,28.19-18.53,46.21-18.53h55.23v18.53h-61.74c-23.18,3.08-41.1,22.34-41.1,45.58s17.92,42.5,41.1,45.58h43.45v-40.83h-36.61l-8.56-18.53h63.7v77.9Z"/><path class="cls-1" d="m65.23,73.64l-12.18,22.21L0,0h24.48l40.75,73.64Zm65.11-51.25l-46.74,84.44-12.24,22.11h0s-12.23-22.11-12.23-22.11l12.24-22.11L118.25,0"/><path class="cls-1" d="m671.37,130.56h-24.48s-40.75-73.64-40.75-73.64l12.18-22.21,53.06,95.85Z"/><polygon class="cls-1" points="554.34 130.56 554.33 130.55 541.35 108.79 600.24 1.18 613.1 23.19 554.34 130.56"/></svg>